<svg xmlns="http://www.w3.org/2000/svg" xmlns:xlink="http://www.w3.org/1999/xlink" viewBox="0 0 467.82 469.88"><defs><style>.cls-1{fill:url(#Degradado_sin_nombre_19);}.cls-2{fill:url(#Degradado_sin_nombre_20);}.cls-3{fill:url(#Degradado_sin_nombre_18);}</style><linearGradient id="Degradado_sin_nombre_19" x1="259.91" y1="8.67" x2="523.82" y2="214.7" gradientUnits="userSpaceOnUse"><stop offset="0" stop-color="#009ee2"/><stop offset="0.11" stop-color="#0299dd"/><stop offset="0.24" stop-color="#068bcd"/><stop offset="0.39" stop-color="#0e73b3"/><stop offset="0.55" stop-color="#19528f"/><stop offset="0.72" stop-color="#272861"/><stop offset="0.74" stop-color="#29235c"/></linearGradient><linearGradient id="Degradado_sin_nombre_20" x1="84.25" y1="176.62" x2="273.06" y2="320.3" gradientUnits="userSpaceOnUse"><stop offset="0.18" stop-color="#009ee2"/><stop offset="0.29" stop-color="#0298db"/><stop offset="0.45" stop-color="#0887c9"/><stop offset="0.64" stop-color="#116baa"/><stop offset="0.85" stop-color="#1e4480"/><stop offset="1" stop-color="#29235c"/></linearGradient><linearGradient id="Degradado_sin_nombre_18" x1="168.6" y1="211.24" x2="543.26" y2="499.16" gradientUnits="userSpaceOnUse"><stop offset="0.04" stop-color="#009ee2"/><stop offset="0.12" stop-color="#0886c8"/><stop offset="0.3" stop-color="#165c9a"/><stop offset="0.46" stop-color="#203d78"/><stop offset="0.59" stop-color="#272a63"/><stop offset="0.67" stop-color="#29235c"/></linearGradient></defs><g id="Layer_2" data-name="Layer 2"><g id="Capa_1" data-name="Capa 1"><path class="cls-1" d="M274.45,64.66S362.64,85,391.79,162.82h63.65S410.19-11.65,203.12.62C203.12.62,239.17,15.57,274.45,64.66Z"/><path class="cls-2" d="M237.25,409.77a172.79,172.79,0,0,1-73.62-13.29c-58-24.48-82.84-73.28-87.94-83.85C51.91,263.34,59.3,218.22,61.88,203.72,64.33,190,72,149.57,105.37,113.91,158.73,56.87,237.25,59,237.25,59,190.21,12,169,8.29,169,8.29A238.33,238.33,0,0,0,17.4,148,242.52,242.52,0,0,0,0,241.05c.8,20.58,6.07,89.38,59.55,149.86,42,47.52,91.75,65,113.22,71.13a139.28,139.28,0,0,0,64.46-52.27Z"/><path class="cls-3" d="M466.82,211.9l-113.51-1.53c-13.8-64.93-76.18-90-76.18-90-5.59-2.26-55.85-21.56-105.09,8-52.57,31.55-56.73,90.45-57,95.29-1,7.09-6.77,53.92,27.32,93.74,34.81,40.66,83.32,41.45,90.29,41.45,9.26-.21,57.15-2.2,91.87-40.84a123.21,123.21,0,0,0,28.91-58.94h52.92C384.12,385.61,276,404.4,276,404.4c-34.13,46.78-70.56,63.66-70.56,63.66,21.46,2.69,74.24,6.36,131.53-21.48,69.93-34,100.57-92.55,109.23-110.77a252.24,252.24,0,0,0,21.08-84.92A248.21,248.21,0,0,0,466.82,211.9ZM233.67,291.41a56.24,56.24,0,1,1,56.24-56.24A56.24,56.24,0,0,1,233.67,291.41Z"/></g></g></svg>