<svg xmlns="http://www.w3.org/2000/svg" viewBox="0 0 602.21 517.03"><g id="Layer_2" data-name="Layer 2"><g id="Layer_1-2" data-name="Layer 1"><path d="M469.52,83q-50,22.41-100,44.83c-55.59,25-111.22,49.93-166.69,75.21-8.42,3.84-14.63,5-22.61-2.14C124.76,151,68.54,102.13,13.49,51.94,6.13,45.23.47,33.1,0,23.21-.64,8.33,12.7.08,31.27.08q154.1,0,308.2,0Q452.93.11,566.4,0c13,0,25.11,1,32.26,13.78,7.45,13.33,2,24.7-5.38,36.19Q449.85,274.79,306.76,499.84C299,512,289.33,519.37,274.65,516.35c-14-2.88-20.08-13.11-22.22-26.61-11.75-74.16-23.42-148.32-35.8-222.37-1.81-10.88,3.39-15.14,10.88-20.06q115.32-75.83,230.41-152c4.65-3.07,9.18-6.3,13.77-9.46Z"/></g></g></svg>