<svg xmlns="http://www.w3.org/2000/svg" viewBox="0 0 535.42 582.31"><g id="Layer_2" data-name="Layer 2"><g id="Layer_1-2" data-name="Layer 1"><path d="M388.93,289.56q-54.63-4.46-109.27-8.89c-60.76-4.86-121.52-9.79-182.3-14.34-9.23-.69-15.26-2.63-18.8-12.77C54,183.23,28.27,113.29,4.18,42.79,1,33.37,1.84,20,6.21,11.13,12.8-2.23,28.46-3,44.74,5.9Q179.82,80.06,314.86,154.32,414.29,209,513.78,263.5c11.38,6.22,21.53,13,21.64,27.61.12,15.27-10.17,22.59-22.13,29.13q-234,128-467.75,256.32c-12.62,6.94-24.68,8.73-36.09-1-10.87-9.26-11.28-21.16-6.66-34C28.2,470.9,53.68,400.28,78.5,329.42c3.64-10.41,10.25-11.64,19.19-12.35q137.58-10.92,275.11-22.23c5.55-.45,11.08-1.11,16.62-1.66C389.26,292,389.1,290.76,388.93,289.56Z"/></g></g></svg>